<?xml version="1.0" standalone="no"?>
<!DOCTYPE svg PUBLIC "-//W3C//DTD SVG 20010904//EN"
 "http://www.w3.org/TR/2001/REC-SVG-20010904/DTD/svg10.dtd">
<svg version="1.0" xmlns="http://www.w3.org/2000/svg"
 width="108.000000pt" height="35.000000pt" viewBox="0 0 108.000000 35.000000"
 preserveAspectRatio="xMidYMid meet">

<g transform="translate(0.000000,35.000000) scale(0.100000,-0.100000)"
fill="#000000" stroke="none">
<path d="M10 310 c0 -22 2 -40 4 -40 3 0 35 18 73 40 l68 40 -72 0 -73 0 0
-40z"/>
<path d="M220 310 c36 -21 68 -39 73 -40 4 0 7 18 7 40 l0 40 -72 0 -73 0 65
-40z"/>
<path d="M107 251 l-47 -26 0 -82 c0 -75 -8 -100 -25 -73 -13 22 -25 8 -25
-30 l0 -40 73 0 c69 1 71 1 45 16 -22 12 -28 22 -28 50 0 35 0 35 28 20 24
-12 31 -12 55 0 27 15 27 15 27 -20 0 -28 -6 -38 -27 -50 -27 -15 -25 -15 45
-16 l72 0 0 40 c0 38 -12 52 -25 30 -17 -27 -25 -2 -25 73 l0 82 -48 26 -48
27 -47 -27z m86 -35 c27 -21 22 -69 -11 -88 -24 -14 -30 -15 -55 -2 -21 12
-27 22 -27 49 0 50 51 73 93 41z"/>
</g>
</svg>
